<svg width="359" height="71" fill="none" xmlns="http://www.w3.org/2000/svg"><g clip-path="url('#clip0_1_6')"><path d="M2.587 69.853v-8.135h29.018c2.23 0 4.145-.526 5.747-1.579a11.143 11.143 0 0 0 3.735-4.065 10.964 10.964 0 0 0 1.34-5.263c.016-1.85-.428-3.675-1.292-5.311a10.243 10.243 0 0 0-3.64-3.924c-1.565-.984-3.464-1.476-5.698-1.476H19.154c-3.768 0-7.087-.784-9.956-2.353a17.202 17.202 0 0 1-6.756-6.505C.814 28.467 0 25.324 0 21.816a19.843 19.843 0 0 1 2.347-9.663 17.328 17.328 0 0 1 6.608-6.795c2.84-1.656 6.112-2.485 9.817-2.487h28.444v8.134H19.622a10.322 10.322 0 0 0-5.555 1.482 9.982 9.982 0 0 0-3.629 3.829 10.535 10.535 0 0 0-1.243 5.012 10.666 10.666 0 0 0 1.196 4.927 9.33 9.33 0 0 0 3.545 3.79 10.147 10.147 0 0 0 5.41 1.437h12.93c4.022 0 7.47.797 10.344 2.392a16.665 16.665 0 0 1 6.609 6.505c1.53 2.746 2.296 5.872 2.296 9.379 0 3.899-.782 7.36-2.346 10.381a17.496 17.496 0 0 1-6.657 7.13c-2.874 1.72-6.162 2.582-9.864 2.584H2.587ZM62.348 69.853V34.926c0-4.338 1.23-7.736 3.688-10.192 2.458-2.456 5.858-3.684 10.198-3.684h10.057v7.56h-8.429c-2.105 0-3.749.607-4.93 1.819-1.182 1.212-1.773 2.903-1.773 5.071v34.353h-8.81ZM98.931 13.3a5.692 5.692 0 0 1-4.164-1.771 5.775 5.775 0 0 1 0-8.324 5.78 5.78 0 0 1 6.429-1.31c.716.305 1.363.75 1.902 1.31a5.764 5.764 0 0 1 0 8.324 5.696 5.696 0 0 1-4.167 1.771ZM94.43 69.853V21.05h8.919v48.803h-8.92ZM117.224 69.853v-28.23c0-4.334.974-8.13 2.921-11.386a20.241 20.241 0 0 1 8.083-7.608c3.449-1.816 7.375-2.725 11.779-2.726 4.46 0 8.403.908 11.829 2.726a20.313 20.313 0 0 1 8.044 7.608c1.946 3.252 2.92 7.048 2.921 11.387v28.229h-8.799V41.727c0-2.934-.65-5.469-1.951-7.605a13.44 13.44 0 0 0-5.17-4.93 14.49 14.49 0 0 0-13.697 0 13.416 13.416 0 0 0-5.17 4.93c-1.31 2.135-1.965 4.67-1.965 7.605v28.126h-8.825ZM197.099 71.011c-4.724 0-8.812-1.132-12.264-3.397a22.187 22.187 0 0 1-7.949-9.235c-1.859-3.898-2.788-8.203-2.788-12.915 0-4.786 1.022-9.108 3.066-12.966a23.01 23.01 0 0 1 8.811-9.19c3.833-2.263 8.43-3.395 13.791-3.397 5.173 0 9.611 1.114 13.312 3.342a22.843 22.843 0 0 1 8.574 9.09c2.01 3.825 3.016 8.095 3.016 12.809v24.69h-8.92V59.9h-.189a22.816 22.816 0 0 1-3.88 5.31 19.195 19.195 0 0 1-6.082 4.178c-2.41 1.082-5.243 1.623-8.498 1.623Zm2.299-7.56c3.193 0 6.018-.781 8.476-2.342a15.892 15.892 0 0 0 5.745-6.528 20.727 20.727 0 0 0 2.06-9.329c0-3.38-.651-6.411-1.951-9.092a15.533 15.533 0 0 0-5.614-6.363c-2.427-1.562-5.269-2.342-8.526-2.342-3.447 0-6.4.797-8.858 2.392a15.638 15.638 0 0 0-5.655 6.466c-1.301 2.712-1.952 5.79-1.952 9.234a20.917 20.917 0 0 0 1.91 9.034 15.4 15.4 0 0 0 5.552 6.458c2.429 1.602 5.366 2.402 8.813 2.4v.011ZM233.016 28.61v-7.56h34.004v7.56h-34.004Zm22.314 41.243c-4.342 0-7.742-1.245-10.198-3.735-2.457-2.49-3.687-5.87-3.691-10.144V8.803h8.811v46.614c0 2.105.591 3.776 1.773 5.012 1.181 1.236 2.826 1.858 4.933 1.866h9.864v7.56l-11.492-.002ZM277.642 69.853V0h8.814v27.366a17.943 17.943 0 0 1 7.23-5.645 22.367 22.367 0 0 1 8.858-1.818c4.342 0 8.11.908 11.302 2.726a19.253 19.253 0 0 1 7.47 7.608c1.788 3.252 2.682 7.048 2.682 11.387v28.229h-8.811V41.727c0-2.934-.671-5.469-2.012-7.605a13.596 13.596 0 0 0-5.316-4.93 15.34 15.34 0 0 0-14.031-.047 13.801 13.801 0 0 0-5.315 4.829c-1.372 2.105-2.057 4.625-2.057 7.56v28.319h-8.814Z" fill="#000"/><path d="M346.814 70.808a12.304 12.304 0 0 1-8.585-3.598 12.28 12.28 0 0 1-3.601-8.577 12.17 12.17 0 0 1 3.569-8.61 12.193 12.193 0 0 1 17.234 0 12.17 12.17 0 0 1 3.569 8.61 12.13 12.13 0 0 1-1.569 6.087 11.956 11.956 0 0 1-10.617 6.088Z" fill="#0FF"/></g><defs><clipPath id="clip0_1_6"><path fill="#fff" d="M0 0h359v71H0z"/></clipPath></defs></svg>