<svg width="90" height="19" fill="none" xmlns="http://www.w3.org/2000/svg"><g clip-path="url('#clip0_4_96')"><path d="M.648 18.693v-2.177h7.275c.56 0 1.04-.14 1.441-.422.393-.274.715-.648.936-1.088a3.09 3.09 0 0 0 .336-1.409 3.154 3.154 0 0 0-.324-1.42 2.68 2.68 0 0 0-.912-1.05c-.393-.264-.869-.396-1.429-.396h-3.17c-.944 0-1.776-.21-2.495-.63a4.453 4.453 0 0 1-1.694-1.74C.204 7.618 0 6.777 0 5.838a5.6 5.6 0 0 1 .588-2.586 4.514 4.514 0 0 1 1.657-1.818C2.957.99 3.777.769 4.706.768h7.13v2.177H4.92a2.463 2.463 0 0 0-1.392.397 2.606 2.606 0 0 0-.91 1.024 2.973 2.973 0 0 0-.312 1.342c0 .458.102.91.3 1.318A2.44 2.44 0 0 0 4.85 8.425h3.242c1.008 0 1.872.213 2.593.64a4.324 4.324 0 0 1 1.656 1.74c.384.735.576 1.572.576 2.51 0 1.044-.196 1.97-.588 2.779A4.575 4.575 0 0 1 10.66 18c-.72.46-1.545.691-2.473.692H.648ZM15.63 18.693V9.346c0-1.16.309-2.07.925-2.727.616-.657 1.469-.986 2.557-.986h2.52v2.023H19.52c-.528 0-.94.163-1.236.487-.296.324-.445.777-.445 1.357v9.193h-2.208ZM24.802 3.56a1.348 1.348 0 0 1-.568-.122 1.428 1.428 0 0 1-.476-.353 1.553 1.553 0 0 1-.329-.508 1.636 1.636 0 0 1 0-1.21c.077-.192.188-.365.329-.51.135-.15.297-.268.477-.35a1.372 1.372 0 0 1 1.134 0c.18.082.342.2.477.35.14.145.253.318.33.51a1.636 1.636 0 0 1 0 1.21 1.553 1.553 0 0 1-.33.508 1.43 1.43 0 0 1-.476.353 1.35 1.35 0 0 1-.568.121Zm-1.129 15.133V5.633h2.236v13.06h-2.236ZM29.388 18.693v-7.554c0-1.16.244-2.176.732-3.047a5.228 5.228 0 0 1 2.026-2.036c.865-.486 1.85-.73 2.953-.73 1.118 0 2.107.243 2.966.73a5.252 5.252 0 0 1 2.017 2.036c.487.87.731 1.886.732 3.047v7.554h-2.206v-7.527c0-.785-.163-1.463-.49-2.035a3.45 3.45 0 0 0-3.013-1.78 3.45 3.45 0 0 0-3.012 1.78c-.329.571-.493 1.25-.493 2.035v7.527h-2.212ZM49.412 19.003c-1.184 0-2.209-.303-3.075-.91a5.848 5.848 0 0 1-1.992-2.47c-.466-1.044-.7-2.196-.7-3.457 0-1.28.257-2.437.77-3.47a6.002 6.002 0 0 1 2.208-2.459c.961-.605 2.114-.908 3.458-.909 1.297 0 2.409.298 3.337.895a5.968 5.968 0 0 1 2.15 2.432c.503 1.024.755 2.167.755 3.428v6.607h-2.236v-2.66h-.047a6.1 6.1 0 0 1-.973 1.42 4.816 4.816 0 0 1-1.525 1.119c-.604.29-1.314.434-2.13.434Zm.576-2.023c.8 0 1.51-.21 2.125-.627a4.18 4.18 0 0 0 1.44-1.747 5.862 5.862 0 0 0 .517-2.496c0-.905-.163-1.716-.49-2.433a4.081 4.081 0 0 0-1.407-1.703c-.608-.418-1.32-.627-2.137-.627-.864 0-1.604.213-2.22.64a4.114 4.114 0 0 0-1.419 1.73c-.326.726-.489 1.55-.489 2.472-.01.834.153 1.66.479 2.417a4.06 4.06 0 0 0 1.392 1.728c.609.43 1.345.643 2.21.643v.003ZM58.416 7.656V5.633h8.525v2.023h-8.525Zm5.594 11.037c-1.088 0-1.94-.333-2.556-1-.616-.666-.925-1.57-.925-2.714V2.356h2.208V14.83c0 .563.148 1.01.445 1.341.296.331.708.498 1.236.5h2.473v2.023l-2.88-.001ZM69.604 18.693V0h2.21v7.323a4.553 4.553 0 0 1 1.812-1.51 5.304 5.304 0 0 1 2.22-.487c1.09 0 2.034.243 2.834.73a5.012 5.012 0 0 1 1.873 2.036c.448.87.672 1.886.672 3.047v7.554h-2.209v-7.527c0-.785-.168-1.463-.504-2.035a3.506 3.506 0 0 0-1.333-1.319 3.652 3.652 0 0 0-1.757-.46 3.65 3.65 0 0 0-1.76.447 3.553 3.553 0 0 0-1.333 1.293c-.344.563-.515 1.237-.515 2.023v7.578h-2.21Z" fill="#000"/><path d="M86.945 18.949a2.99 2.99 0 0 1-2.152-.963 3.4 3.4 0 0 1-.903-2.296c0-.864.322-1.692.895-2.303a2.962 2.962 0 0 1 2.16-.955c.81 0 1.587.344 2.16.955.573.61.895 1.44.895 2.303.005.57-.13 1.133-.393 1.63a3.108 3.108 0 0 1-1.121 1.205c-.468.287-1 .433-1.541.424Z" fill="#0FF"/></g><defs><clipPath id="clip0_4_96"><path fill="#fff" d="M0 0h90v19H0z"/></clipPath></defs></svg>