<svg width="359" height="71" viewBox="0 0 359 71" fill="none" xmlns="http://www.w3.org/2000/svg">
<g clip-path="url(#clip0_1_6)">
<path d="M2.58658 69.8527V61.7184H31.6048C33.8346 61.7184 35.7504 61.1921 37.3522 60.1395C38.9188 59.1187 40.2032 57.7205 41.0871 56.0737C41.9684 54.4593 42.4294 52.6495 42.4278 50.8106C42.4429 48.9608 41.9985 47.1361 41.1345 45.5C40.2906 43.8929 39.0343 42.5388 37.4943 41.5763C35.9297 40.5924 34.0307 40.1004 31.7971 40.1004H19.1541C15.3857 40.1004 12.067 39.316 9.19798 37.7473C6.38622 36.246 4.04715 33.9939 2.44164 31.2421C0.813877 28.4666 -4.73549e-06 25.3245 -4.73549e-06 21.8157C-0.0505911 18.448 0.75702 15.1227 2.34687 12.1527C3.87489 9.31811 6.16337 6.96515 8.95548 5.35786C11.7948 3.70186 15.067 2.87293 18.7722 2.87108H47.2163V11.0053H19.6224C17.6676 10.9631 15.741 11.4769 14.0673 12.4868C12.5359 13.4149 11.2824 14.7375 10.4383 16.3159C9.61444 17.8579 9.18725 19.5804 9.19519 21.3284C9.19207 23.0426 9.60221 24.7323 10.3909 26.2546C11.1902 27.8276 12.4195 29.1417 13.9363 30.0447C15.569 31.0214 17.4438 31.5193 19.3464 31.4816H32.2765C36.2976 31.4816 39.7455 32.279 42.6201 33.8737C45.3946 35.3738 47.6862 37.6295 49.2287 40.3789C50.7598 43.1246 51.5254 46.251 51.5254 49.7579C51.5254 53.6566 50.7431 57.1171 49.1785 60.1395C47.681 63.098 45.3726 65.5704 42.5225 67.2684C39.6479 68.9894 36.3599 69.8508 32.6584 69.8527H2.58658Z" fill="black"/>
<path d="M62.3484 69.8527V34.9263C62.3484 30.5877 63.5776 27.1903 66.0359 24.7342C68.4943 22.278 71.8938 21.0499 76.2345 21.0499H86.291V28.6105H77.8623C75.757 28.6105 74.1134 29.2167 72.9316 30.429C71.7498 31.6413 71.1589 33.3316 71.1589 35.5V69.8527H62.3484Z" fill="black"/>
<path d="M98.9313 13.3C98.1528 13.3053 97.3815 13.1508 96.6652 12.8462C95.9489 12.5415 95.3029 12.0932 94.7671 11.5289C94.2066 10.99 93.7606 10.3437 93.4561 9.62853C93.1515 8.91341 92.9945 8.14423 92.9945 7.36706C92.9945 6.58988 93.1515 5.8207 93.4561 5.10558C93.7606 4.39046 94.2066 3.74411 94.7671 3.20525C95.3064 2.64522 95.9534 2.19972 96.6691 1.89541C97.3849 1.5911 98.1548 1.43424 98.9327 1.43424C99.7105 1.43424 100.48 1.5911 101.196 1.89541C101.912 2.19972 102.559 2.64522 103.098 3.20525C103.659 3.74411 104.105 4.39046 104.409 5.10558C104.714 5.8207 104.871 6.58988 104.871 7.36706C104.871 8.14423 104.714 8.91341 104.409 9.62853C104.105 10.3437 103.659 10.99 103.098 11.5289C102.562 12.0932 101.915 12.5416 101.199 12.8463C100.482 13.1509 99.7102 13.3053 98.9313 13.3ZM94.4298 69.8527V21.0499H103.349V69.8527H94.4298Z" fill="black"/>
<path d="M117.224 69.8527V41.6237C117.224 37.2887 118.198 33.4931 120.145 30.2368C122.077 26.9977 124.877 24.3626 128.228 22.6289C131.677 20.8132 135.603 19.9045 140.007 19.9026C144.467 19.9026 148.41 20.8114 151.836 22.6289C155.171 24.3721 157.956 27.0059 159.88 30.2368C161.826 33.4894 162.8 37.285 162.801 41.6237V69.8527H154.002V41.7267C154.002 38.7934 153.352 36.2584 152.051 34.1215C150.804 32.0426 149.018 30.3395 146.881 29.1925C144.775 28.0628 142.422 27.4715 140.032 27.4715C137.642 27.4715 135.29 28.0628 133.184 29.1925C131.046 30.3387 129.26 32.042 128.014 34.1215C126.704 36.2565 126.049 38.7916 126.049 41.7267V69.8527H117.224Z" fill="black"/>
<path d="M197.099 71.0111C192.375 71.0111 188.287 69.8787 184.835 67.6137C181.375 65.3368 178.621 62.1382 176.886 58.3795C175.027 54.4809 174.098 50.1756 174.098 45.4638C174.098 40.6778 175.12 36.3558 177.164 32.498C179.178 28.6679 182.231 25.4827 185.975 23.3084C189.808 21.0453 194.405 19.9128 199.766 19.911C204.939 19.911 209.377 21.0249 213.078 23.2527C216.726 25.4276 219.695 28.5751 221.652 32.3421C223.662 36.1683 224.668 40.4383 224.668 45.1519V69.8415H215.748V59.9H215.559C214.529 61.8482 213.222 63.637 211.679 65.2105C209.941 66.9828 207.876 68.4014 205.597 69.3876C203.187 70.47 200.354 71.0111 197.099 71.0111ZM199.398 63.4505C202.591 63.4505 205.416 62.6699 207.874 61.1086C210.359 59.5084 212.349 57.2481 213.619 54.5811C215.023 51.6739 215.728 48.4796 215.679 45.2522C215.679 41.8715 215.028 38.8408 213.728 36.16C212.484 33.5594 210.54 31.3561 208.114 29.7968C205.687 28.2355 202.845 27.4549 199.588 27.4549C196.141 27.4549 193.188 28.2522 190.73 29.847C188.278 31.4327 186.319 33.6726 185.075 36.3131C183.774 39.0255 183.123 42.1036 183.123 45.5474C183.079 48.6631 183.731 51.7493 185.033 54.5811C186.239 57.2122 188.164 59.4504 190.585 61.0389C193.014 62.6411 195.951 63.4413 199.398 63.4394V63.4505Z" fill="black"/>
<path d="M233.016 28.6105V21.0499H267.02V28.6105H233.016ZM255.33 69.8527C250.988 69.8527 247.588 68.6079 245.132 66.1183C242.675 63.6288 241.445 60.2471 241.441 55.9735V8.8026H250.252V55.4165C250.252 57.5218 250.843 59.1927 252.025 60.4291C253.206 61.6655 254.851 62.2874 256.958 62.2949H266.822V69.8555L255.33 69.8527Z" fill="black"/>
<path d="M277.642 69.8527V0H286.456V27.3657C288.336 24.8899 290.827 22.9448 293.686 21.7211C296.484 20.5182 299.498 19.8994 302.544 19.9026C306.886 19.9026 310.654 20.8114 313.846 22.6289C317.003 24.4119 319.593 27.049 321.316 30.2368C323.104 33.4894 323.998 37.285 323.998 41.6237V69.8527H315.187V41.7267C315.187 38.7934 314.516 36.2584 313.175 34.1215C311.882 32.0281 310.045 30.3244 307.859 29.1925C305.693 28.0694 303.29 27.4791 300.849 27.4709C298.409 27.4627 296.002 28.0367 293.828 29.1452C291.661 30.258 289.827 31.924 288.513 33.974C287.141 36.0792 286.456 38.5994 286.456 41.5346V69.8527H277.642Z" fill="black"/>
<path d="M346.814 70.8079C343.591 70.7788 340.508 69.4867 338.229 67.2098C335.95 64.9328 334.657 61.8529 334.628 58.6329C334.628 55.4039 335.912 52.3072 338.197 50.0239C340.483 47.7407 343.582 46.458 346.814 46.458C350.046 46.458 353.146 47.7407 355.431 50.0239C357.716 52.3072 359 55.4039 359 58.6329C359.021 60.7645 358.48 62.8641 357.431 64.7204C356.374 66.5964 354.83 68.1524 352.961 69.2239C351.092 70.2955 348.968 70.8427 346.814 70.8079Z" fill="#00FFFF"/>
</g>
<defs>
<clipPath id="clip0_1_6">
<rect width="359" height="71" fill="white"/>
</clipPath>
</defs>
</svg>
