<svg width="222" height="44" fill="none" xmlns="http://www.w3.org/2000/svg"><g clip-path="url('#clip0_5_3')"><path d="M1.6 43.289v-5.041h17.944c1.379 0 2.564-.326 3.554-.978a6.899 6.899 0 0 0 2.31-2.52c.545-1 .83-2.122.829-3.262a6.938 6.938 0 0 0-.8-3.29 6.342 6.342 0 0 0-2.251-2.432c-.968-.61-2.142-.915-3.523-.915h-7.818c-2.33 0-4.383-.486-6.157-1.458A10.647 10.647 0 0 1 1.51 19.36C.503 17.641 0 15.694 0 13.52A12.319 12.319 0 0 1 1.451 7.53a10.728 10.728 0 0 1 4.087-4.21c1.756-1.027 3.78-1.54 6.07-1.542h17.59V6.82H12.134a6.371 6.371 0 0 0-3.435.918 6.18 6.18 0 0 0-2.244 2.373 6.54 6.54 0 0 0-.769 3.107 6.622 6.622 0 0 0 .74 3.052 5.777 5.777 0 0 0 2.192 2.35 6.264 6.264 0 0 0 3.345.89h7.996c2.487 0 4.619.494 6.397 1.482a10.317 10.317 0 0 1 4.086 4.031c.947 1.702 1.42 3.64 1.42 5.813 0 2.416-.483 4.56-1.45 6.434a10.833 10.833 0 0 1-4.117 4.417c-1.777 1.067-3.81 1.6-6.1 1.602H1.6ZM38.555 43.289V21.644c0-2.688.76-4.794 2.28-6.316 1.52-1.522 3.623-2.283 6.307-2.283h6.219v4.685h-5.212c-1.302 0-2.318.376-3.05 1.127-.73.752-1.095 1.8-1.095 3.143v21.289h-5.449ZM61.178 8.242a3.512 3.512 0 0 1-2.575-1.097 3.579 3.579 0 0 1-.811-3.981c.188-.443.464-.844.81-1.178a3.575 3.575 0 0 1 5.152 0 3.58 3.58 0 0 1 0 5.159 3.52 3.52 0 0 1-2.576 1.097ZM58.394 43.29V13.045h5.516v30.244h-5.516ZM72.49 43.289V25.795c0-2.687.602-5.039 1.806-7.057a12.528 12.528 0 0 1 4.998-4.714c2.133-1.126 4.561-1.689 7.284-1.69 2.758 0 5.196.563 7.315 1.69a12.58 12.58 0 0 1 4.975 4.714c1.203 2.016 1.805 4.368 1.806 7.057v17.494h-5.442v-17.43c0-1.818-.402-3.389-1.206-4.713a8.32 8.32 0 0 0-3.197-3.055 8.941 8.941 0 0 0-8.47 0 8.306 8.306 0 0 0-3.197 3.055c-.81 1.323-1.216 2.894-1.216 4.713v17.43H72.49ZM121.883 44.007c-2.921 0-5.449-.702-7.584-2.105a13.748 13.748 0 0 1-4.916-5.723c-1.149-2.416-1.723-5.084-1.723-8.004 0-2.966.632-5.645 1.896-8.035a14.244 14.244 0 0 1 5.448-5.695c2.37-1.403 5.213-2.105 8.528-2.106 3.199 0 5.943.69 8.232 2.071a14.141 14.141 0 0 1 5.302 5.633c1.243 2.371 1.865 5.017 1.865 7.939v15.3h-5.516v-6.16h-.117a14.113 14.113 0 0 1-2.399 3.29 11.875 11.875 0 0 1-3.761 2.589c-1.49.67-3.242 1.006-5.255 1.006Zm1.422-4.685c1.974 0 3.721-.484 5.241-1.452a9.844 9.844 0 0 0 3.553-4.045 12.86 12.86 0 0 0 1.273-5.781c0-2.096-.402-3.974-1.206-5.635a9.613 9.613 0 0 0-3.472-3.943c-1.5-.968-3.258-1.452-5.272-1.452-2.132 0-3.957.494-5.478 1.483a9.692 9.692 0 0 0-3.497 4.007c-.804 1.68-1.206 3.588-1.206 5.723a12.99 12.99 0 0 0 1.18 5.598 9.536 9.536 0 0 0 3.434 4.002c1.502.993 3.318 1.489 5.45 1.488v.007ZM144.093 17.73v-4.685h21.028v4.685h-21.028Zm13.799 25.559c-2.685 0-4.787-.771-6.306-2.314-1.519-1.543-2.28-3.639-2.282-6.287V5.455h5.448v28.888c0 1.304.365 2.34 1.096 3.106.731.766 1.748 1.152 3.051 1.156h6.1v4.686l-7.107-.002ZM171.69 43.289V0h5.45v16.96a11.096 11.096 0 0 1 4.471-3.5 13.805 13.805 0 0 1 5.477-1.126c2.686 0 5.016.563 6.99 1.69a11.924 11.924 0 0 1 4.619 4.714c1.105 2.016 1.658 4.368 1.658 7.057v17.494h-5.448v-17.43c0-1.818-.415-3.389-1.245-4.713a8.408 8.408 0 0 0-3.287-3.055 9.465 9.465 0 0 0-8.676-.03 8.546 8.546 0 0 0-3.287 2.993c-.848 1.305-1.272 2.867-1.272 4.686v17.549h-5.45Z" fill="#000"/><path d="M214.464 43.88a7.598 7.598 0 0 1-5.308-2.229 7.62 7.62 0 0 1-2.227-5.315A7.55 7.55 0 0 1 209.136 31a7.53 7.53 0 0 1 10.657 0A7.55 7.55 0 0 1 222 36.336a7.537 7.537 0 0 1-.97 3.772 7.39 7.39 0 0 1-6.566 3.772Z" fill="#0FF"/></g><defs><clipPath id="clip0_5_3"><path fill="#fff" d="M0 0h222v44H0z"/></clipPath></defs></svg>