<svg width="139" height="29" fill="none" xmlns="http://www.w3.org/2000/svg"><g clip-path="url('#clip0_4_194')"><path d="M1.001 28.531V25.21h11.236c.863 0 1.605-.215 2.225-.645a4.469 4.469 0 0 0 1.446-1.66c.342-.66.52-1.4.52-2.15a4.768 4.768 0 0 0-.501-2.17 4.106 4.106 0 0 0-1.41-1.602c-.605-.402-1.34-.603-2.206-.603H7.416c-1.459 0-2.744-.32-3.855-.961A6.835 6.835 0 0 1 .945 12.76C.315 11.627 0 10.344 0 8.91a8.466 8.466 0 0 1 .909-3.947 6.92 6.92 0 0 1 2.558-2.776c1.1-.676 2.367-1.015 3.801-1.015h11.014v3.322H7.597a3.838 3.838 0 0 0-2.15.605c-.593.38-1.079.92-1.405 1.564a4.493 4.493 0 0 0-.482 2.048c-.001.7.158 1.39.463 2.012.31.642.786 1.179 1.373 1.548a3.773 3.773 0 0 0 2.095.587h5.006c1.557 0 2.892.325 4.005.977a6.633 6.633 0 0 1 2.559 2.657c.593 1.121.889 2.398.889 3.83 0 1.593-.303 3.006-.909 4.241a7.01 7.01 0 0 1-2.577 2.912c-1.113.703-2.386 1.055-3.82 1.055H1.002ZM24.14 28.531V14.266c0-1.772.476-3.16 1.428-4.163.952-1.004 2.268-1.505 3.949-1.505h3.894v3.088h-3.264c-.815 0-1.451.248-1.909.743-.457.495-.686 1.185-.686 2.071v14.031H24.14ZM38.305 5.432c-.301.003-.6-.06-.877-.185a2.202 2.202 0 0 1-.735-.538 2.367 2.367 0 0 1-.508-.776 2.47 2.47 0 0 1 0-1.848c.118-.292.29-.556.508-.776.208-.229.459-.41.736-.535a2.14 2.14 0 0 1 1.753 0c.277.124.527.306.736.535.217.22.39.484.508.776a2.47 2.47 0 0 1 0 1.848c-.118.292-.29.556-.508.776-.207.23-.458.414-.735.538a2.107 2.107 0 0 1-.878.185Zm-1.743 23.1V8.597h3.453V28.53h-3.453ZM45.388 28.531v-11.53c0-1.77.377-3.32 1.13-4.65a8.027 8.027 0 0 1 3.13-3.108c1.335-.742 2.856-1.113 4.56-1.114 1.728 0 3.254.371 4.581 1.114a8.064 8.064 0 0 1 3.114 3.107c.754 1.329 1.13 2.88 1.132 4.651v11.53h-3.407V17.043c0-1.198-.252-2.233-.756-3.106a5.336 5.336 0 0 0-4.653-2.716 5.329 5.329 0 0 0-4.654 2.716c-.507.872-.76 1.908-.76 3.106v11.488h-3.417ZM76.314 29.005c-1.829 0-3.412-.463-4.748-1.388a8.946 8.946 0 0 1-3.078-3.772c-.72-1.592-1.08-3.35-1.08-5.275 0-1.955.396-3.72 1.188-5.296a9.198 9.198 0 0 1 3.411-3.754c1.484-.924 3.264-1.387 5.34-1.387 2.003 0 3.72.455 5.154 1.365a9.144 9.144 0 0 1 3.32 3.712c.778 1.563 1.167 3.307 1.167 5.232v10.085h-3.453v-4.06h-.073a9.304 9.304 0 0 1-1.503 2.168 7.432 7.432 0 0 1-2.355 1.706c-.933.442-2.03.664-3.29.664Zm.89-3.089c1.236 0 2.33-.318 3.282-.956a6.396 6.396 0 0 0 2.224-2.666 8.858 8.858 0 0 0 .798-3.81c0-1.382-.252-2.62-.755-3.714a6.248 6.248 0 0 0-2.174-2.6c-.94-.637-2.04-.956-3.301-.956-1.335 0-2.478.326-3.43.977a6.297 6.297 0 0 0-2.19 2.641c-.503 1.108-.755 2.365-.755 3.772a8.946 8.946 0 0 0 .74 3.69 6.21 6.21 0 0 0 2.149 2.637c.94.655 2.078.982 3.412.98v.005ZM90.22 11.686V8.598h13.167v3.088H90.221Zm8.64 16.845c-1.68 0-2.997-.508-3.948-1.525-.951-1.017-1.428-2.398-1.43-4.144V3.595h3.412v19.04c0 .86.229 1.542.687 2.047.457.505 1.094.76 1.91.762h3.819v3.088h-4.45ZM107.5 28.531V0h3.412v11.178a7.014 7.014 0 0 1 2.799-2.306 8.279 8.279 0 0 1 3.43-.743c1.681 0 3.14.371 4.376 1.114a7.677 7.677 0 0 1 2.892 3.107c.693 1.329 1.039 2.88 1.039 4.651v11.53h-3.412V17.043c0-1.198-.259-2.233-.779-3.106a5.383 5.383 0 0 0-2.058-2.013 5.694 5.694 0 0 0-2.714-.704 5.692 5.692 0 0 0-2.719.684 5.46 5.46 0 0 0-2.058 1.973c-.531.86-.796 1.889-.796 3.088V28.53H107.5Z" fill="#000"/><path d="M134.282 28.922a4.643 4.643 0 0 1-3.324-1.47 5.157 5.157 0 0 1-1.394-3.503c0-1.32.497-2.584 1.382-3.517a4.596 4.596 0 0 1 3.336-1.456 4.6 4.6 0 0 1 3.336 1.456A5.112 5.112 0 0 1 139 23.95a5.162 5.162 0 0 1-.608 2.486 4.768 4.768 0 0 1-1.73 1.84 4.448 4.448 0 0 1-2.38.647Z" fill="#0FF"/></g><defs><clipPath id="clip0_4_194"><path fill="#fff" d="M0 0h139v29H0z"/></clipPath></defs></svg>