<svg width="139" height="29" viewBox="0 0 139 29" fill="none" xmlns="http://www.w3.org/2000/svg">
<g clip-path="url(#clip0_4_194)">
<path d="M1.00144 28.5314V25.2089H12.2369C13.1003 25.2089 13.842 24.994 14.4622 24.564C15.0688 24.1471 15.5661 23.576 15.9083 22.9034C16.2496 22.2439 16.4281 21.5047 16.4274 20.7536C16.4333 19.9981 16.2612 19.2528 15.9267 18.5845C15.5999 17.9281 15.1135 17.375 14.5172 16.9819C13.9115 16.58 13.1762 16.379 12.3114 16.379H7.41616C5.95709 16.379 4.67214 16.0587 3.56129 15.4179C2.47261 14.8047 1.56696 13.8848 0.945324 12.7609C0.315075 11.6272 -4.8885e-05 10.3438 -4.8885e-05 8.91066C-0.0196353 7.5351 0.293061 6.17689 0.908631 4.96376C1.50026 3.806 2.38633 2.84493 3.4674 2.18843C4.56673 1.51203 5.83371 1.17346 7.26831 1.1727H18.2815V4.49514H7.59747C6.84059 4.47787 6.09466 4.68773 5.44664 5.10026C4.85367 5.47934 4.36835 6.01953 4.04153 6.66423C3.72254 7.29408 3.55713 7.99765 3.56021 8.71161C3.559 9.41176 3.7178 10.1019 4.02318 10.7237C4.33264 11.3662 4.80864 11.903 5.39591 12.2718C6.02807 12.6707 6.75397 12.8741 7.49063 12.8587H12.497C14.0539 12.8587 15.3889 13.1844 16.5019 13.8357C17.5761 14.4485 18.4634 15.3698 19.0606 16.4928C19.6535 17.6143 19.9499 18.8913 19.9499 20.3237C19.9499 21.9161 19.647 23.3295 19.0412 24.564C18.4614 25.7724 17.5676 26.7823 16.4641 27.4758C15.3511 28.1788 14.078 28.5306 12.6449 28.5314H1.00144Z" fill="black"/>
<path d="M24.1404 28.5314V14.2657C24.1404 12.4936 24.6164 11.1059 25.5682 10.1027C26.5201 9.09948 27.8363 8.59787 29.517 8.59787H33.4107V11.686H30.1472C29.3321 11.686 28.6957 11.9336 28.2381 12.4287C27.7806 12.9239 27.5518 13.6143 27.5518 14.5V28.5314H24.1404Z" fill="black"/>
<path d="M38.3049 5.43238C38.0035 5.43455 37.7048 5.37147 37.4275 5.24703C37.1501 5.1226 36.9 4.93946 36.6926 4.70897C36.4755 4.48887 36.3029 4.22487 36.1849 3.93278C36.067 3.64069 36.0062 3.32651 36.0062 3.00908C36.0062 2.69164 36.067 2.37747 36.1849 2.08537C36.3029 1.79328 36.4755 1.52928 36.6926 1.30918C36.9014 1.08044 37.1519 0.898473 37.429 0.774177C37.7061 0.649882 38.0042 0.585815 38.3054 0.585815C38.6066 0.585815 38.9047 0.649882 39.1818 0.774177C39.4589 0.898473 39.7094 1.08044 39.9183 1.30918C40.1353 1.52928 40.3079 1.79328 40.4259 2.08537C40.5438 2.37747 40.6046 2.69164 40.6046 3.00908C40.6046 3.32651 40.5438 3.64069 40.4259 3.93278C40.3079 4.22487 40.1353 4.48887 39.9183 4.70897C39.7106 4.93949 39.4603 5.12264 39.1828 5.24707C38.9052 5.3715 38.6064 5.43457 38.3049 5.43238ZM36.562 28.5314V8.59785H40.0154V28.5314H36.562Z" fill="black"/>
<path d="M45.3876 28.5314V17.0012C45.3876 15.2306 45.7646 13.6803 46.5186 12.3503C47.2666 11.0273 48.3506 9.95094 49.6482 9.24279C50.9835 8.50118 52.5038 8.13 54.2089 8.12924C55.9356 8.12924 57.4623 8.50042 58.789 9.24279C60.08 9.95482 61.1582 11.0306 61.9035 12.3503C62.6568 13.6788 63.0338 15.2291 63.0345 17.0012V28.5314H59.6275V17.0433C59.6275 15.8452 59.3757 14.8098 58.8721 13.937C58.3893 13.0878 57.6976 12.3922 56.8702 11.9237C56.0549 11.4623 55.144 11.2208 54.2186 11.2208C53.2932 11.2208 52.3823 11.4623 51.567 11.9237C50.7394 12.3919 50.0476 13.0876 49.5651 13.937C49.0579 14.809 48.8043 15.8445 48.8043 17.0433V28.5314H45.3876Z" fill="black"/>
<path d="M76.3141 29.0046C74.4852 29.0046 72.9024 28.542 71.5656 27.6169C70.2259 26.6869 69.1598 25.3804 68.4878 23.8452C67.7683 22.2528 67.4086 20.4943 67.4086 18.5697C67.4086 16.6149 67.8043 14.8496 68.5957 13.2739C69.3752 11.7094 70.5576 10.4084 72.007 9.52033C73.4913 8.59597 75.2712 8.13342 77.3469 8.13266C79.3498 8.13266 81.0679 8.58763 82.5011 9.49758C83.9134 10.3859 85.063 11.6715 85.8207 13.2102C86.5991 14.773 86.9884 16.5171 86.9884 18.4424V28.5268H83.5349V24.4662H83.4616C83.0629 25.262 82.5569 25.9926 81.9593 26.6353C81.2865 27.3592 80.4868 27.9386 79.6045 28.3414C78.6714 28.7835 77.5746 29.0046 76.3141 29.0046ZM77.2044 25.9164C78.4404 25.9164 79.5344 25.5976 80.4862 24.9598C81.4483 24.3063 82.2185 23.383 82.7104 22.2937C83.2539 21.1063 83.527 19.8015 83.508 18.4833C83.508 17.1025 83.2562 15.8646 82.7525 14.7696C82.271 13.7074 81.5184 12.8074 80.579 12.1705C79.6394 11.5328 78.539 11.214 77.2778 11.214C75.9432 11.214 74.8 11.5397 73.8481 12.191C72.8986 12.8387 72.1401 13.7536 71.6584 14.8321C71.1548 15.94 70.903 17.1972 70.903 18.6039C70.8858 19.8765 71.1384 21.1371 71.6422 22.2937C72.1094 23.3684 72.8545 24.2826 73.792 24.9314C74.7323 25.5858 75.8698 25.9126 77.2044 25.9119V25.9164Z" fill="black"/>
<path d="M90.2205 11.686V8.59786H103.387V11.686H90.2205ZM98.8605 28.5314C97.1791 28.5314 95.8628 28.0229 94.9117 27.0061C93.9606 25.9892 93.4843 24.608 93.4829 22.8624V3.59543H96.8942V22.6349C96.8942 23.4948 97.123 24.1773 97.5806 24.6823C98.0381 25.1873 98.6749 25.4414 99.4907 25.4444H103.31V28.5325L98.8605 28.5314Z" fill="black"/>
<path d="M107.5 28.5314V0H110.912V11.1776C111.64 10.1663 112.604 9.37181 113.711 8.87198C114.795 8.38066 115.962 8.1279 117.141 8.12924C118.822 8.12924 120.281 8.50042 121.517 9.24278C122.74 9.97105 123.742 11.0482 124.409 12.3503C125.102 13.6788 125.448 15.2291 125.448 17.0012V28.5314H122.036V17.0433C122.036 15.8452 121.777 14.8098 121.257 13.937C120.757 13.0819 120.045 12.386 119.199 11.9237C118.36 11.465 117.43 11.2239 116.485 11.2205C115.54 11.2171 114.608 11.4516 113.766 11.9044C112.927 12.3589 112.217 13.0394 111.708 13.8767C111.177 14.7366 110.912 15.766 110.912 16.9648V28.5314H107.5Z" fill="black"/>
<path d="M134.282 28.9215C133.034 28.9096 131.84 28.3819 130.958 27.4519C130.076 26.5218 129.575 25.2639 129.564 23.9487C129.564 22.6298 130.061 21.3649 130.946 20.4323C131.83 19.4997 133.03 18.9758 134.282 18.9758C135.533 18.9758 136.733 19.4997 137.618 20.4323C138.503 21.3649 139 22.6298 139 23.9487C139.008 24.8193 138.799 25.6769 138.392 26.4351C137.983 27.2014 137.385 27.8369 136.662 28.2746C135.938 28.7122 135.116 28.9358 134.282 28.9215Z" fill="#00FFFF"/>
</g>
<defs>
<clipPath id="clip0_4_194">
<rect width="139" height="29" fill="white"/>
</clipPath>
</defs>
</svg>
