<svg width="222" height="44" viewBox="0 0 222 44" fill="none" xmlns="http://www.w3.org/2000/svg">
<g clip-path="url(#clip0_5_3)">
<path d="M1.59951 43.289V38.248H19.5439C20.9228 38.248 22.1075 37.9219 23.098 37.2695C24.0668 36.6369 24.861 35.7705 25.4076 34.7499C25.9526 33.7494 26.2377 32.6278 26.2367 31.4882C26.246 30.3419 25.9713 29.2111 25.4369 28.1972C24.9151 27.2013 24.1382 26.3621 23.1859 25.7656C22.2184 25.1558 21.044 24.851 19.6629 24.851H11.8446C9.51429 24.851 7.46205 24.3649 5.68789 23.3927C3.94915 22.4623 2.5027 21.0667 1.50988 19.3613C0.503295 17.6413 3.21353e-06 15.6941 3.21353e-06 13.5196C-0.0312786 11.4326 0.468135 9.37182 1.45128 7.53122C2.39618 5.77461 3.81134 4.31643 5.53794 3.32036C7.29372 2.29411 9.31722 1.78041 11.6085 1.77926H29.1978V6.82021H12.1342C10.9253 6.794 9.734 7.11242 8.69903 7.73831C7.75199 8.31347 6.97687 9.13307 6.4549 10.1112C5.94543 11.0669 5.68126 12.1343 5.68617 13.2176C5.68424 14.2799 5.93786 15.3271 6.42559 16.2705C6.91984 17.2452 7.68006 18.0597 8.61802 18.6192C9.62764 19.2245 10.787 19.5331 11.9635 19.5097H19.9593C22.4459 19.5097 24.578 20.0039 26.3556 20.9922C28.0713 21.9218 29.4884 23.3197 30.4423 25.0235C31.3891 26.7251 31.8625 28.6626 31.8625 30.8359C31.8625 33.252 31.3788 35.3965 30.4112 37.2695C29.4852 39.103 28.0577 40.6352 26.2953 41.6875C24.5177 42.754 22.4844 43.2878 20.1955 43.289H1.59951Z" fill="black"/>
<path d="M38.5553 43.289V21.6445C38.5553 18.9558 39.3154 16.8503 40.8356 15.3282C42.3558 13.8061 44.458 13.045 47.1423 13.045H53.361V17.7305H48.1488C46.8469 17.7305 45.8306 18.1061 45.0998 18.8574C44.369 19.6087 44.0036 20.6562 44.0036 22V43.289H38.5553Z" fill="black"/>
<path d="M61.1775 8.24223C60.6961 8.24553 60.2192 8.14981 59.7763 7.96101C59.3333 7.77221 58.9338 7.49435 58.6025 7.14465C58.2559 6.8107 57.9801 6.41015 57.7918 5.96698C57.6034 5.5238 57.5063 5.04713 57.5063 4.5655C57.5063 4.08387 57.6034 3.60719 57.7918 3.16402C57.9801 2.72085 58.2559 2.32029 58.6025 1.98635C58.936 1.63929 59.3361 1.3632 59.7787 1.17461C60.2213 0.986029 60.6974 0.888824 61.1784 0.888824C61.6594 0.888824 62.1355 0.986029 62.5781 1.17461C63.0208 1.3632 63.4208 1.63929 63.7543 1.98635C64.101 2.32029 64.3767 2.72085 64.5651 3.16402C64.7534 3.60719 64.8505 4.08387 64.8505 4.5655C64.8505 5.04713 64.7534 5.5238 64.5651 5.96698C64.3767 6.41015 64.101 6.8107 63.7543 7.14465C63.4227 7.4944 63.0229 7.77228 62.5797 7.96107C62.1364 8.14987 61.6592 8.24556 61.1775 8.24223ZM58.3939 43.289V13.045H63.9095V43.289H58.3939Z" fill="black"/>
<path d="M72.4895 43.289V25.7949C72.4895 23.1085 73.0917 20.7563 74.2959 18.7383C75.4906 16.731 77.2219 15.098 79.2943 14.0235C81.427 12.8983 83.855 12.3352 86.5783 12.334C89.336 12.334 91.7744 12.8972 93.8932 14.0235C95.9552 15.1039 97.6772 16.736 98.8676 18.7383C100.071 20.754 100.673 23.1062 100.674 25.7949V43.289H95.2325V25.8588C95.2325 24.041 94.8303 22.47 94.026 21.1457C93.2549 19.8574 92.1501 18.8019 90.8287 18.0912C89.5266 17.391 88.0717 17.0246 86.5938 17.0246C85.1159 17.0246 83.6609 17.391 82.3589 18.0912C81.0371 18.8014 79.9322 19.857 79.1616 21.1457C78.3515 22.4688 77.9465 24.0399 77.9465 25.8588V43.289H72.4895Z" fill="black"/>
<path d="M121.883 44.0069C118.962 44.0069 116.434 43.3051 114.299 41.9015C112.159 40.4904 110.457 38.5082 109.383 36.1789C108.234 33.7628 107.66 31.0948 107.66 28.1748C107.66 25.2088 108.292 22.5304 109.556 20.1396C110.801 17.766 112.689 15.7921 115.004 14.4446C117.374 13.0421 120.217 12.3403 123.532 12.3392C126.731 12.3392 129.475 13.0295 131.764 14.4101C134.02 15.7579 135.856 17.7085 137.066 20.043C138.309 22.4142 138.931 25.0603 138.931 27.9815V43.2821H133.415V37.1211H133.298C132.662 38.3285 131.853 39.437 130.899 40.4121C129.824 41.5105 128.547 42.3896 127.138 43.0008C125.648 43.6715 123.896 44.0069 121.883 44.0069ZM123.305 39.3215C125.279 39.3215 127.026 38.8377 128.546 37.8701C130.083 36.8785 131.313 35.4777 132.099 33.8249C132.967 32.0233 133.403 30.0437 133.372 28.0436C133.372 25.9485 132.97 24.0703 132.166 22.409C131.397 20.7974 130.195 19.4319 128.694 18.4656C127.194 17.4981 125.436 17.0143 123.422 17.0143C121.29 17.0143 119.465 17.5084 117.944 18.4967C116.428 19.4794 115.217 20.8675 114.447 22.5039C113.643 24.1848 113.241 26.0924 113.241 28.2265C113.213 30.1574 113.617 32.07 114.421 33.8249C115.167 35.4555 116.357 36.8425 117.855 37.827C119.357 38.8198 121.173 39.3157 123.305 39.3146V39.3215Z" fill="black"/>
<path d="M144.093 17.7305V13.045H165.121V17.7305H144.093ZM157.892 43.289C155.207 43.289 153.105 42.5176 151.586 40.9747C150.067 39.4319 149.306 37.3363 149.304 34.6878V5.45513H154.752V34.3426C154.752 35.6473 155.117 36.6828 155.848 37.449C156.579 38.2152 157.596 38.6007 158.899 38.6053H164.999V43.2907L157.892 43.289Z" fill="black"/>
<path d="M171.69 43.289V0H177.14V16.9591C178.302 15.4248 179.843 14.2193 181.611 13.4609C183.341 12.7155 185.205 12.332 187.088 12.334C189.774 12.334 192.104 12.8972 194.078 14.0235C196.03 15.1285 197.631 16.7627 198.697 18.7383C199.802 20.754 200.355 23.1062 200.355 25.7949V43.289H194.907V25.8588C194.907 24.041 194.492 22.47 193.662 21.1457C192.863 19.8484 191.727 18.7926 190.375 18.0912C189.036 17.3951 187.55 17.0293 186.041 17.0242C184.531 17.0191 183.043 17.3748 181.699 18.0618C180.359 18.7515 179.225 19.7839 178.412 21.0543C177.564 22.359 177.14 23.9208 177.14 25.7397V43.289H171.69Z" fill="black"/>
<path d="M214.464 43.8809C212.471 43.8629 210.565 43.0622 209.156 41.6511C207.747 40.24 206.947 38.3314 206.929 36.3359C206.929 34.3348 207.723 32.4157 209.136 31.0007C210.549 29.5858 212.466 28.7909 214.464 28.7909C216.463 28.7909 218.38 29.5858 219.793 31.0007C221.206 32.4157 222 34.3348 222 36.3359C222.013 37.6569 221.678 38.958 221.03 40.1084C220.376 41.271 219.421 42.2353 218.266 42.8993C217.11 43.5634 215.797 43.9025 214.464 43.8809Z" fill="#00FFFF"/>
</g>
<defs>
<clipPath id="clip0_5_3">
<rect width="222" height="44" fill="white"/>
</clipPath>
</defs>
</svg>
