<svg width="90" height="19" viewBox="0 0 90 19" fill="none" xmlns="http://www.w3.org/2000/svg">
<g clip-path="url(#clip0_4_96)">
<path d="M0.648398 18.693V16.5162H7.92316C8.48217 16.5162 8.96245 16.3753 9.364 16.0937C9.75674 15.8205 10.0787 15.4463 10.3003 15.0056C10.5213 14.5736 10.6368 14.0893 10.6364 13.5972C10.6402 13.1022 10.5288 12.6139 10.3122 12.1761C10.1006 11.746 9.78571 11.3836 9.39964 11.1261C9.0074 10.8627 8.53132 10.7311 7.97138 10.7311H4.80181C3.85709 10.7311 3.02511 10.5212 2.30585 10.1014C1.60095 9.69964 1.01456 9.09696 0.612063 8.36056C0.203988 7.61783 -4.92163e-05 6.77698 -4.92163e-05 5.83801C-0.012731 4.93678 0.189734 4.04692 0.588305 3.25211C0.971372 2.49357 1.54509 1.86391 2.24506 1.43379C2.95686 0.990633 3.7772 0.768807 4.70608 0.768311H11.8369V2.94508H4.91921C4.42914 2.93377 3.94616 3.07126 3.52658 3.34154C3.14265 3.5899 2.82841 3.94382 2.6168 4.36621C2.41026 4.77887 2.30316 5.23983 2.30515 5.70759C2.30437 6.16632 2.40719 6.6185 2.60492 7.02588C2.80529 7.4468 3.11349 7.79849 3.49374 8.04012C3.90305 8.30148 4.37306 8.43474 4.85003 8.42465H8.09157C9.09964 8.42465 9.964 8.63803 10.6847 9.06479C11.3802 9.46622 11.9547 10.0699 12.3414 10.8056C12.7253 11.5404 12.9172 12.377 12.9172 13.3155C12.9172 14.3588 12.7211 15.2848 12.3288 16.0937C11.9534 16.8854 11.3747 17.547 10.6602 18.0014C9.93955 18.4619 9.11524 18.6925 8.18729 18.693H0.648398Z" fill="black"/>
<path d="M15.6306 18.693V9.34649C15.6306 8.18545 15.9387 7.27629 16.555 6.61901C17.1713 5.96173 18.0236 5.63309 19.1118 5.63309H21.6329V7.65635H19.5198C18.992 7.65635 18.58 7.81855 18.2837 8.14297C17.9875 8.46739 17.8393 8.91973 17.8393 9.50001V18.693H15.6306Z" fill="black"/>
<path d="M24.8017 3.55915C24.6066 3.56058 24.4132 3.51925 24.2337 3.43772C24.0541 3.35619 23.8921 3.23621 23.7578 3.0852C23.6173 2.94099 23.5055 2.76803 23.4291 2.57666C23.3528 2.38529 23.3134 2.17945 23.3134 1.97147C23.3134 1.7635 23.3528 1.55766 23.4291 1.36629C23.5055 1.17492 23.6173 1.00195 23.7578 0.85775C23.893 0.707884 24.0552 0.588664 24.2346 0.507229C24.4141 0.425794 24.6071 0.38382 24.8021 0.38382C24.9971 0.38382 25.1901 0.425794 25.3695 0.507229C25.549 0.588664 25.7112 0.707884 25.8464 0.85775C25.9869 1.00195 26.0987 1.17492 26.1751 1.36629C26.2514 1.55766 26.2908 1.7635 26.2908 1.97147C26.2908 2.17945 26.2514 2.38529 26.1751 2.57666C26.0987 2.76803 25.9869 2.94099 25.8464 3.0852C25.7119 3.23623 25.5499 3.35622 25.3702 3.43774C25.1905 3.51927 24.997 3.56059 24.8017 3.55915ZM23.6733 18.693V5.63309H25.9093V18.693H23.6733Z" fill="black"/>
<path d="M29.3877 18.693V11.1387C29.3877 9.97868 29.6318 8.96295 30.12 8.09154C30.6043 7.22475 31.3062 6.51958 32.1464 6.05562C33.011 5.56974 33.9953 5.32655 35.0993 5.32605C36.2174 5.32605 37.2059 5.56924 38.0649 6.05562C38.9008 6.52212 39.5989 7.22692 40.0815 8.09154C40.5692 8.96195 40.8133 9.97768 40.8138 11.1387V18.693H38.6078V11.1663C38.6078 10.3813 38.4448 9.70295 38.1187 9.13112C37.8061 8.57479 37.3582 8.11902 36.8225 7.81209C36.2946 7.50976 35.7048 7.35153 35.1056 7.35153C34.5065 7.35153 33.9166 7.50976 33.3888 7.81209C32.8529 8.1188 32.405 8.57463 32.0926 9.13112C31.7642 9.70245 31.6 10.3808 31.6 11.1663V18.693H29.3877Z" fill="black"/>
<path d="M49.412 19.003C48.2278 19.003 47.203 18.6999 46.3374 18.0938C45.47 17.4845 44.7797 16.6285 44.3446 15.6227C43.8787 14.5794 43.6458 13.4273 43.6458 12.1664C43.6458 10.8856 43.902 9.72902 44.4144 8.69665C44.9192 7.67168 45.6847 6.81931 46.6232 6.23744C47.5842 5.63183 48.7367 5.32877 50.0807 5.32828C51.3776 5.32828 52.49 5.62636 53.4179 6.22254C54.3324 6.80455 55.0767 7.64686 55.5673 8.65492C56.0714 9.67884 56.3234 10.8215 56.3234 12.0829V18.69H54.0873V16.0296H54.0398C53.7817 16.5509 53.4541 17.0296 53.0672 17.4507C52.6315 17.925 52.1137 18.3046 51.5425 18.5685C50.9383 18.8582 50.2281 19.003 49.412 19.003ZM49.9884 16.9797C50.7887 16.9797 51.4971 16.7708 52.1134 16.353C52.7363 15.9248 53.235 15.3199 53.5535 14.6062C53.9054 13.8282 54.0822 12.9734 54.0699 12.1097C54.0699 11.205 53.9068 10.394 53.5807 9.67661C53.269 8.98067 52.7817 8.39105 52.1735 7.97379C51.5651 7.55597 50.8526 7.34706 50.036 7.34706C49.1718 7.34706 48.4316 7.56044 47.8153 7.9872C47.2005 8.41156 46.7094 9.01097 46.3975 9.71759C46.0714 10.4434 45.9084 11.2671 45.9084 12.1887C45.8973 13.0225 46.0608 13.8484 46.387 14.6062C46.6895 15.3103 47.1719 15.9092 47.779 16.3344C48.3878 16.7631 49.1243 16.9772 49.9884 16.9767V16.9797Z" fill="black"/>
<path d="M58.4161 7.65634V5.63308H66.941V7.65634H58.4161ZM64.0104 18.693C62.9217 18.693 62.0695 18.3599 61.4536 17.6936C60.8378 17.0274 60.5294 16.1225 60.5285 14.9788V2.35562H62.7373V14.8298C62.7373 15.3932 62.8854 15.8403 63.1817 16.1712C63.4779 16.502 63.8902 16.6685 64.4185 16.6705H66.8914V18.6937L64.0104 18.693Z" fill="black"/>
<path d="M69.604 18.693V0H71.8135V7.32323C72.2847 6.66069 72.9093 6.14015 73.6261 5.81268C74.3274 5.49078 75.0831 5.32518 75.8467 5.32605C76.9354 5.32605 77.8799 5.56924 78.6802 6.05562C79.4716 6.53276 80.1207 7.23845 80.5528 8.09154C81.001 8.96195 81.225 9.97768 81.225 11.1387V18.693H79.0163V11.1663C79.0163 10.3813 78.8481 9.70295 78.5118 9.13112C78.1878 8.57089 77.7272 8.11499 77.1792 7.81209C76.6362 7.51152 76.0337 7.35357 75.4219 7.35137C74.8101 7.34916 74.2066 7.50277 73.6617 7.79942C73.1184 8.09722 72.6586 8.54304 72.3292 9.09162C71.9854 9.655 71.8135 10.3294 71.8135 11.1149V18.693H69.604Z" fill="black"/>
<path d="M86.945 18.9486C86.1371 18.9408 85.3643 18.5951 84.7929 17.9857C84.2216 17.3764 83.8974 16.5522 83.8901 15.6905C83.8901 14.8264 84.2119 13.9977 84.7848 13.3867C85.3578 12.7757 86.1348 12.4324 86.945 12.4324C87.7553 12.4324 88.5323 12.7757 89.1052 13.3867C89.6781 13.9977 90 14.8264 90 15.6905C90.0053 16.2609 89.8696 16.8228 89.6066 17.3196C89.3417 17.8216 88.9545 18.238 88.486 18.5247C88.0176 18.8115 87.4851 18.9579 86.945 18.9486Z" fill="#00FFFF"/>
</g>
<defs>
<clipPath id="clip0_4_96">
<rect width="90" height="19" fill="white"/>
</clipPath>
</defs>
</svg>
